<mxfile host="Electron" agent="Mozilla/5.0 (Windows NT 10.0; Win64; x64) AppleWebKit/537.36 (KHTML, like Gecko) draw.io/24.7.17 Chrome/128.0.6613.36 Electron/32.0.1 Safari/537.36" version="24.7.17">
  <diagram name="Page-1" id="3vm8b0QwZ_OLflcpJgNd">
    <mxGraphModel dx="1120" dy="532" grid="0" gridSize="10" guides="1" tooltips="1" connect="1" arrows="1" fold="1" page="1" pageScale="1" pageWidth="850" pageHeight="1100" math="0" shadow="0">
      <root>
        <mxCell id="0" />
        <mxCell id="1" parent="0" />
        <mxCell id="f9ZMB7WoNkR_8hRX2S1V-8" value="" style="rounded=1;whiteSpace=wrap;html=1;" parent="1" vertex="1">
          <mxGeometry x="366" y="570" width="188" height="330" as="geometry" />
        </mxCell>
        <mxCell id="f9ZMB7WoNkR_8hRX2S1V-6" value="" style="whiteSpace=wrap;html=1;dashed=1;dashPattern=12 12;" parent="1" vertex="1">
          <mxGeometry x="403" y="682" width="127" height="122" as="geometry" />
        </mxCell>
        <mxCell id="8ybJmUi7v4ZrJRuS83j8-49" value="" style="rounded=1;whiteSpace=wrap;html=1;" parent="1" vertex="1">
          <mxGeometry x="230" y="104" width="640" height="300" as="geometry" />
        </mxCell>
        <mxCell id="8ybJmUi7v4ZrJRuS83j8-33" value="" style="rounded=0;whiteSpace=wrap;html=1;gradientColor=none;dashed=1;dashPattern=8 8;" parent="1" vertex="1">
          <mxGeometry x="260" y="140" width="220" height="250" as="geometry" />
        </mxCell>
        <mxCell id="8ybJmUi7v4ZrJRuS83j8-27" value="" style="rounded=0;whiteSpace=wrap;html=1;gradientColor=none;dashed=1;dashPattern=8 8;" parent="1" vertex="1">
          <mxGeometry x="490" y="140" width="260" height="250" as="geometry" />
        </mxCell>
        <mxCell id="8ybJmUi7v4ZrJRuS83j8-2" value="API_GateWay&lt;div&gt;(ocelot)&lt;/div&gt;" style="rounded=0;whiteSpace=wrap;html=1;" parent="1" vertex="1">
          <mxGeometry x="140" y="190" width="80" height="170" as="geometry" />
        </mxCell>
        <mxCell id="8ybJmUi7v4ZrJRuS83j8-4" value="View Model" style="rounded=1;whiteSpace=wrap;html=1;" parent="1" vertex="1">
          <mxGeometry x="350" y="250" width="80" height="35" as="geometry" />
        </mxCell>
        <mxCell id="8ybJmUi7v4ZrJRuS83j8-6" value="Service layer" style="rounded=1;whiteSpace=wrap;html=1;" parent="1" vertex="1">
          <mxGeometry x="267" y="330" width="103" height="40" as="geometry" />
        </mxCell>
        <mxCell id="8ybJmUi7v4ZrJRuS83j8-7" value="Api layer" style="rounded=1;whiteSpace=wrap;html=1;" parent="1" vertex="1">
          <mxGeometry x="267" y="180" width="103" height="40" as="geometry" />
        </mxCell>
        <mxCell id="8ybJmUi7v4ZrJRuS83j8-8" value="" style="endArrow=classic;startArrow=classic;html=1;rounded=0;entryX=0.25;entryY=1;entryDx=0;entryDy=0;exitX=0.25;exitY=0;exitDx=0;exitDy=0;flowAnimation=1;" parent="1" source="8ybJmUi7v4ZrJRuS83j8-6" target="8ybJmUi7v4ZrJRuS83j8-7" edge="1">
          <mxGeometry width="50" height="50" relative="1" as="geometry">
            <mxPoint x="400" y="290" as="sourcePoint" />
            <mxPoint x="450" y="240" as="targetPoint" />
          </mxGeometry>
        </mxCell>
        <mxCell id="8ybJmUi7v4ZrJRuS83j8-9" value="" style="endArrow=classic;startArrow=classic;html=1;rounded=0;entryX=0.75;entryY=1;entryDx=0;entryDy=0;" parent="1" target="8ybJmUi7v4ZrJRuS83j8-7" edge="1">
          <mxGeometry width="50" height="50" relative="1" as="geometry">
            <mxPoint x="360" y="250" as="sourcePoint" />
            <mxPoint x="450" y="240" as="targetPoint" />
          </mxGeometry>
        </mxCell>
        <mxCell id="8ybJmUi7v4ZrJRuS83j8-10" value="" style="endArrow=classic;startArrow=classic;html=1;rounded=0;entryX=0.825;entryY=-0.025;entryDx=0;entryDy=0;entryPerimeter=0;" parent="1" target="8ybJmUi7v4ZrJRuS83j8-6" edge="1">
          <mxGeometry width="50" height="50" relative="1" as="geometry">
            <mxPoint x="360" y="290" as="sourcePoint" />
            <mxPoint x="354" y="230" as="targetPoint" />
          </mxGeometry>
        </mxCell>
        <mxCell id="8ybJmUi7v4ZrJRuS83j8-12" value="&lt;b&gt;Repository layer&lt;/b&gt;" style="rounded=1;whiteSpace=wrap;html=1;" parent="1" vertex="1">
          <mxGeometry x="510" y="240" width="160" height="130" as="geometry" />
        </mxCell>
        <mxCell id="8ybJmUi7v4ZrJRuS83j8-13" value="Integration services" style="rounded=1;whiteSpace=wrap;html=1;" parent="1" vertex="1">
          <mxGeometry x="510" y="160" width="120" height="60" as="geometry" />
        </mxCell>
        <mxCell id="8ybJmUi7v4ZrJRuS83j8-14" value="Dapper" style="rounded=0;whiteSpace=wrap;html=1;" parent="1" vertex="1">
          <mxGeometry x="670" y="257.5" width="50" height="95" as="geometry" />
        </mxCell>
        <mxCell id="8ybJmUi7v4ZrJRuS83j8-15" value="&lt;b&gt;&lt;font style=&quot;font-size: 10px;&quot;&gt;Micro ORM&lt;/font&gt;&lt;/b&gt;" style="text;html=1;align=center;verticalAlign=middle;resizable=0;points=[];autosize=1;strokeColor=none;fillColor=none;" parent="1" vertex="1">
          <mxGeometry x="660" y="350" width="80" height="30" as="geometry" />
        </mxCell>
        <mxCell id="8ybJmUi7v4ZrJRuS83j8-19" value="&lt;font style=&quot;font-size: 10px;&quot;&gt;&lt;b&gt;DataBase&lt;/b&gt;&lt;/font&gt;" style="shape=datastore;whiteSpace=wrap;html=1;" parent="1" vertex="1">
          <mxGeometry x="770" y="260" width="50" height="70" as="geometry" />
        </mxCell>
        <mxCell id="8ybJmUi7v4ZrJRuS83j8-20" value="&lt;b&gt;&lt;font style=&quot;font-size: 10px;&quot;&gt;MS-SQL&lt;/font&gt;&lt;/b&gt;" style="text;html=1;align=center;verticalAlign=middle;resizable=0;points=[];autosize=1;strokeColor=none;fillColor=none;" parent="1" vertex="1">
          <mxGeometry x="760" y="330" width="60" height="30" as="geometry" />
        </mxCell>
        <mxCell id="8ybJmUi7v4ZrJRuS83j8-22" value="" style="sketch=0;pointerEvents=1;shadow=0;dashed=0;html=1;strokeColor=none;fillColor=#DF8C42;labelPosition=center;verticalLabelPosition=bottom;verticalAlign=top;align=center;outlineConnect=0;shape=mxgraph.veeam2.restful_api;" parent="1" vertex="1">
          <mxGeometry x="711" y="170" width="34" height="34" as="geometry" />
        </mxCell>
        <mxCell id="8ybJmUi7v4ZrJRuS83j8-23" value="" style="endArrow=classic;html=1;rounded=0;" parent="1" target="8ybJmUi7v4ZrJRuS83j8-22" edge="1">
          <mxGeometry width="50" height="50" relative="1" as="geometry">
            <mxPoint x="630" y="187" as="sourcePoint" />
            <mxPoint x="450" y="250" as="targetPoint" />
          </mxGeometry>
        </mxCell>
        <mxCell id="8ybJmUi7v4ZrJRuS83j8-24" value="External Integration" style="text;html=1;align=center;verticalAlign=middle;resizable=0;points=[];autosize=1;strokeColor=none;fillColor=none;" parent="1" vertex="1">
          <mxGeometry x="740" y="175" width="130" height="30" as="geometry" />
        </mxCell>
        <mxCell id="8ybJmUi7v4ZrJRuS83j8-25" value="Restful" style="text;html=1;align=center;verticalAlign=middle;resizable=0;points=[];autosize=1;strokeColor=none;fillColor=none;" parent="1" vertex="1">
          <mxGeometry x="740" y="150" width="60" height="30" as="geometry" />
        </mxCell>
        <mxCell id="8ybJmUi7v4ZrJRuS83j8-28" value="" style="endArrow=classic;startArrow=classic;html=1;rounded=0;entryX=0;entryY=0.5;entryDx=0;entryDy=0;exitX=1;exitY=0.447;exitDx=0;exitDy=0;exitPerimeter=0;flowAnimation=1;" parent="1" source="8ybJmUi7v4ZrJRuS83j8-14" target="8ybJmUi7v4ZrJRuS83j8-19" edge="1">
          <mxGeometry width="50" height="50" relative="1" as="geometry">
            <mxPoint x="720" y="300" as="sourcePoint" />
            <mxPoint x="759" y="303" as="targetPoint" />
          </mxGeometry>
        </mxCell>
        <mxCell id="8ybJmUi7v4ZrJRuS83j8-34" value="" style="endArrow=classic;html=1;rounded=0;entryX=0;entryY=0.838;entryDx=0;entryDy=0;exitX=1;exitY=0.5;exitDx=0;exitDy=0;entryPerimeter=0;flowAnimation=1;" parent="1" edge="1">
          <mxGeometry width="50" height="50" relative="1" as="geometry">
            <mxPoint x="370" y="341.06" as="sourcePoint" />
            <mxPoint x="510" y="340.00000000000006" as="targetPoint" />
          </mxGeometry>
        </mxCell>
        <mxCell id="8ybJmUi7v4ZrJRuS83j8-38" value="" style="endArrow=classic;html=1;rounded=0;entryX=1;entryY=1;entryDx=0;entryDy=0;exitX=0.05;exitY=0.969;exitDx=0;exitDy=0;exitPerimeter=0;flowAnimation=1;" parent="1" source="8ybJmUi7v4ZrJRuS83j8-12" target="8ybJmUi7v4ZrJRuS83j8-6" edge="1">
          <mxGeometry width="50" height="50" relative="1" as="geometry">
            <mxPoint x="400" y="300" as="sourcePoint" />
            <mxPoint x="450" y="250" as="targetPoint" />
          </mxGeometry>
        </mxCell>
        <mxCell id="8ybJmUi7v4ZrJRuS83j8-39" value="" style="endArrow=classic;html=1;rounded=0;entryX=0;entryY=0.25;entryDx=0;entryDy=0;flowAnimation=1;" parent="1" target="8ybJmUi7v4ZrJRuS83j8-2" edge="1">
          <mxGeometry width="50" height="50" relative="1" as="geometry">
            <mxPoint x="70" y="233" as="sourcePoint" />
            <mxPoint x="100" y="230" as="targetPoint" />
          </mxGeometry>
        </mxCell>
        <mxCell id="8ybJmUi7v4ZrJRuS83j8-40" value="" style="endArrow=classic;html=1;rounded=0;exitX=-0.025;exitY=0.624;exitDx=0;exitDy=0;exitPerimeter=0;flowAnimation=1;" parent="1" source="8ybJmUi7v4ZrJRuS83j8-2" edge="1">
          <mxGeometry width="50" height="50" relative="1" as="geometry">
            <mxPoint x="400" y="300" as="sourcePoint" />
            <mxPoint x="70" y="296" as="targetPoint" />
          </mxGeometry>
        </mxCell>
        <mxCell id="8ybJmUi7v4ZrJRuS83j8-41" value="Actor" style="shape=umlActor;verticalLabelPosition=bottom;verticalAlign=top;html=1;outlineConnect=0;" parent="1" vertex="1">
          <mxGeometry x="10" y="225" width="30" height="60" as="geometry" />
        </mxCell>
        <mxCell id="8ybJmUi7v4ZrJRuS83j8-46" value="Request" style="text;html=1;align=center;verticalAlign=middle;resizable=0;points=[];autosize=1;strokeColor=none;fillColor=none;" parent="1" vertex="1">
          <mxGeometry x="45" y="198" width="70" height="30" as="geometry" />
        </mxCell>
        <mxCell id="8ybJmUi7v4ZrJRuS83j8-47" value="Response" style="text;html=1;align=center;verticalAlign=middle;resizable=0;points=[];autosize=1;strokeColor=none;fillColor=none;" parent="1" vertex="1">
          <mxGeometry x="35" y="310" width="80" height="30" as="geometry" />
        </mxCell>
        <mxCell id="8ybJmUi7v4ZrJRuS83j8-48" value="" style="endArrow=classic;startArrow=classic;html=1;rounded=0;" parent="1" source="8ybJmUi7v4ZrJRuS83j8-2" target="8ybJmUi7v4ZrJRuS83j8-33" edge="1">
          <mxGeometry width="50" height="50" relative="1" as="geometry">
            <mxPoint x="400" y="300" as="sourcePoint" />
            <mxPoint x="450" y="250" as="targetPoint" />
          </mxGeometry>
        </mxCell>
        <mxCell id="8ybJmUi7v4ZrJRuS83j8-50" value="&lt;b&gt;&lt;i&gt;&lt;u&gt;Backend service implementation&amp;nbsp;&lt;/u&gt;&lt;/i&gt;&lt;/b&gt;" style="text;html=1;align=center;verticalAlign=middle;resizable=0;points=[];autosize=1;strokeColor=none;fillColor=none;" parent="1" vertex="1">
          <mxGeometry x="391" y="82" width="208" height="26" as="geometry" />
        </mxCell>
        <mxCell id="8ybJmUi7v4ZrJRuS83j8-54" style="edgeStyle=orthogonalEdgeStyle;rounded=0;orthogonalLoop=1;jettySize=auto;html=1;entryX=0.077;entryY=0.2;entryDx=0;entryDy=0;entryPerimeter=0;exitX=1;exitY=0.25;exitDx=0;exitDy=0;" parent="1" source="8ybJmUi7v4ZrJRuS83j8-33" target="8ybJmUi7v4ZrJRuS83j8-27" edge="1">
          <mxGeometry relative="1" as="geometry">
            <Array as="points">
              <mxPoint x="480" y="190" />
            </Array>
          </mxGeometry>
        </mxCell>
        <mxCell id="f9ZMB7WoNkR_8hRX2S1V-1" value="User service" style="whiteSpace=wrap;html=1;" parent="1" vertex="1">
          <mxGeometry x="403" y="626" width="124" height="47" as="geometry" />
        </mxCell>
        <mxCell id="f9ZMB7WoNkR_8hRX2S1V-2" value="Book management service" style="whiteSpace=wrap;html=1;" parent="1" vertex="1">
          <mxGeometry x="406" y="713" width="120" height="35" as="geometry" />
        </mxCell>
        <mxCell id="f9ZMB7WoNkR_8hRX2S1V-3" value="Book exchange service" style="whiteSpace=wrap;html=1;" parent="1" vertex="1">
          <mxGeometry x="406" y="759" width="120" height="35" as="geometry" />
        </mxCell>
        <mxCell id="f9ZMB7WoNkR_8hRX2S1V-4" value="Notification Service" style="whiteSpace=wrap;html=1;" parent="1" vertex="1">
          <mxGeometry x="403" y="818" width="120" height="35" as="geometry" />
        </mxCell>
        <mxCell id="f9ZMB7WoNkR_8hRX2S1V-5" value="User DB" style="shape=cylinder3;whiteSpace=wrap;html=1;boundedLbl=1;backgroundOutline=1;size=15;" parent="1" vertex="1">
          <mxGeometry x="590" y="619" width="66" height="57" as="geometry" />
        </mxCell>
        <mxCell id="f9ZMB7WoNkR_8hRX2S1V-7" value="&lt;b&gt;Bookservice&lt;/b&gt;" style="text;html=1;align=center;verticalAlign=middle;whiteSpace=wrap;rounded=0;" parent="1" vertex="1">
          <mxGeometry x="430" y="682" width="60" height="30" as="geometry" />
        </mxCell>
        <mxCell id="f9ZMB7WoNkR_8hRX2S1V-9" value="Microservices" style="text;html=1;align=center;verticalAlign=middle;whiteSpace=wrap;rounded=0;" parent="1" vertex="1">
          <mxGeometry x="435" y="568" width="60" height="30" as="geometry" />
        </mxCell>
        <mxCell id="f9ZMB7WoNkR_8hRX2S1V-11" value="Books DB" style="shape=cylinder3;whiteSpace=wrap;html=1;boundedLbl=1;backgroundOutline=1;size=15;" parent="1" vertex="1">
          <mxGeometry x="594.5" y="698.5" width="65.5" height="64" as="geometry" />
        </mxCell>
        <mxCell id="f9ZMB7WoNkR_8hRX2S1V-12" value="" style="endArrow=classic;startArrow=classic;html=1;rounded=0;entryX=0;entryY=0.5;entryDx=0;entryDy=0;entryPerimeter=0;exitX=1.024;exitY=0.426;exitDx=0;exitDy=0;exitPerimeter=0;" parent="1" source="f9ZMB7WoNkR_8hRX2S1V-6" target="f9ZMB7WoNkR_8hRX2S1V-11" edge="1">
          <mxGeometry width="50" height="50" relative="1" as="geometry">
            <mxPoint x="275" y="768" as="sourcePoint" />
            <mxPoint x="325" y="718" as="targetPoint" />
          </mxGeometry>
        </mxCell>
        <mxCell id="f9ZMB7WoNkR_8hRX2S1V-13" value="" style="endArrow=classic;startArrow=classic;html=1;rounded=0;entryX=0;entryY=0.5;entryDx=0;entryDy=0;entryPerimeter=0;exitX=1.024;exitY=0.426;exitDx=0;exitDy=0;exitPerimeter=0;" parent="1" target="f9ZMB7WoNkR_8hRX2S1V-5" edge="1">
          <mxGeometry width="50" height="50" relative="1" as="geometry">
            <mxPoint x="526" y="643" as="sourcePoint" />
            <mxPoint x="583" y="645" as="targetPoint" />
          </mxGeometry>
        </mxCell>
        <mxCell id="f9ZMB7WoNkR_8hRX2S1V-14" value="API Gateway&lt;div&gt;(Ocelot)&lt;/div&gt;" style="rounded=1;whiteSpace=wrap;html=1;" parent="1" vertex="1">
          <mxGeometry x="240" y="566" width="98" height="317" as="geometry" />
        </mxCell>
        <mxCell id="f9ZMB7WoNkR_8hRX2S1V-17" value="Frontend/&lt;div&gt;React Application&lt;/div&gt;" style="rounded=1;whiteSpace=wrap;html=1;" parent="1" vertex="1">
          <mxGeometry x="99" y="635" width="98" height="179" as="geometry" />
        </mxCell>
        <mxCell id="f9ZMB7WoNkR_8hRX2S1V-18" value="" style="endArrow=classic;startArrow=classic;html=1;rounded=0;exitX=0.98;exitY=0.436;exitDx=0;exitDy=0;exitPerimeter=0;entryX=0.031;entryY=0.47;entryDx=0;entryDy=0;entryPerimeter=0;" parent="1" source="f9ZMB7WoNkR_8hRX2S1V-17" target="f9ZMB7WoNkR_8hRX2S1V-14" edge="1">
          <mxGeometry width="50" height="50" relative="1" as="geometry">
            <mxPoint x="275" y="668" as="sourcePoint" />
            <mxPoint x="325" y="618" as="targetPoint" />
          </mxGeometry>
        </mxCell>
        <mxCell id="f9ZMB7WoNkR_8hRX2S1V-20" value="&lt;b&gt;MicroService Architecture diagram Book exchange platform&lt;/b&gt;" style="text;html=1;align=center;verticalAlign=middle;resizable=0;points=[];autosize=1;strokeColor=none;fillColor=none;" parent="1" vertex="1">
          <mxGeometry x="234" y="530" width="360" height="26" as="geometry" />
        </mxCell>
        <mxCell id="yD1XJH8yDxutRPFlu6hP-1" value="" style="endArrow=classic;startArrow=classic;html=1;rounded=0;exitX=0.99;exitY=0.467;exitDx=0;exitDy=0;exitPerimeter=0;" parent="1" source="f9ZMB7WoNkR_8hRX2S1V-14" edge="1">
          <mxGeometry width="50" height="50" relative="1" as="geometry">
            <mxPoint x="345" y="702" as="sourcePoint" />
            <mxPoint x="395" y="652" as="targetPoint" />
          </mxGeometry>
        </mxCell>
        <mxCell id="yD1XJH8yDxutRPFlu6hP-2" value="" style="endArrow=classic;startArrow=classic;html=1;rounded=0;exitX=1;exitY=0.5;exitDx=0;exitDy=0;entryX=0.17;entryY=0.539;entryDx=0;entryDy=0;entryPerimeter=0;" parent="1" source="f9ZMB7WoNkR_8hRX2S1V-14" target="f9ZMB7WoNkR_8hRX2S1V-8" edge="1">
          <mxGeometry width="50" height="50" relative="1" as="geometry">
            <mxPoint x="538" y="694" as="sourcePoint" />
            <mxPoint x="588" y="644" as="targetPoint" />
            <Array as="points">
              <mxPoint x="349" y="725" />
            </Array>
          </mxGeometry>
        </mxCell>
        <mxCell id="yD1XJH8yDxutRPFlu6hP-3" value="Transaction Service" style="whiteSpace=wrap;html=1;" parent="1" vertex="1">
          <mxGeometry x="403" y="858" width="120" height="35" as="geometry" />
        </mxCell>
        <mxCell id="M6gmDJ6oIDBZek8a-03F-2" value="" style="endArrow=classic;startArrow=classic;html=1;rounded=0;exitX=0;exitY=0.5;exitDx=0;exitDy=0;" parent="1" source="yD1XJH8yDxutRPFlu6hP-3" edge="1">
          <mxGeometry width="50" height="50" relative="1" as="geometry">
            <mxPoint x="284" y="810" as="sourcePoint" />
            <mxPoint x="340" y="783" as="targetPoint" />
          </mxGeometry>
        </mxCell>
        <mxCell id="M6gmDJ6oIDBZek8a-03F-3" value="Transaction" style="shape=cylinder3;whiteSpace=wrap;html=1;boundedLbl=1;backgroundOutline=1;size=15;" parent="1" vertex="1">
          <mxGeometry x="618" y="836" width="65.5" height="64" as="geometry" />
        </mxCell>
        <mxCell id="M6gmDJ6oIDBZek8a-03F-4" value="" style="endArrow=classic;startArrow=classic;html=1;rounded=0;exitX=1;exitY=0.5;exitDx=0;exitDy=0;" parent="1" source="yD1XJH8yDxutRPFlu6hP-3" target="M6gmDJ6oIDBZek8a-03F-3" edge="1">
          <mxGeometry width="50" height="50" relative="1" as="geometry">
            <mxPoint x="284" y="810" as="sourcePoint" />
            <mxPoint x="334" y="760" as="targetPoint" />
          </mxGeometry>
        </mxCell>
        <mxCell id="M6gmDJ6oIDBZek8a-03F-5" value="MS-SQL" style="text;html=1;align=center;verticalAlign=middle;resizable=0;points=[];autosize=1;strokeColor=none;fillColor=none;" parent="1" vertex="1">
          <mxGeometry x="650" y="641" width="64" height="26" as="geometry" />
        </mxCell>
        <mxCell id="M6gmDJ6oIDBZek8a-03F-6" value="MS-SQL" style="text;html=1;align=center;verticalAlign=middle;resizable=0;points=[];autosize=1;strokeColor=none;fillColor=none;" parent="1" vertex="1">
          <mxGeometry x="654" y="717.5" width="64" height="26" as="geometry" />
        </mxCell>
        <mxCell id="M6gmDJ6oIDBZek8a-03F-8" value="&lt;b&gt;Postgres&lt;/b&gt;" style="text;html=1;align=center;verticalAlign=middle;resizable=0;points=[];autosize=1;strokeColor=none;fillColor=none;" parent="1" vertex="1">
          <mxGeometry x="678" y="862.5" width="69" height="26" as="geometry" />
        </mxCell>
      </root>
    </mxGraphModel>
  </diagram>
</mxfile>
